<svg id="my-svg" width="100%" xmlns="http://www.w3.org/2000/svg" xmlns:xlink="http://www.w3.org/1999/xlink" class="flowchart" style="max-width: 276px; background-color: white;" viewBox="0 0 276 511" role="graphics-document document" aria-roledescription="flowchart-v2"><style>#my-svg{font-family:"trebuchet ms",verdana,arial,sans-serif;font-size:16px;fill:#333;}@keyframes edge-animation-frame{from{stroke-dashoffset:0;}}@keyframes dash{to{stroke-dashoffset:0;}}#my-svg .edge-animation-slow{stroke-dasharray:9,5!important;stroke-dashoffset:900;animation:dash 50s linear infinite;stroke-linecap:round;}#my-svg .edge-animation-fast{stroke-dasharray:9,5!important;stroke-dashoffset:900;animation:dash 20s linear infinite;stroke-linecap:round;}#my-svg .error-icon{fill:#552222;}#my-svg .error-text{fill:#552222;stroke:#552222;}#my-svg .edge-thickness-normal{stroke-width:1px;}#my-svg .edge-thickness-thick{stroke-width:3.5px;}#my-svg .edge-pattern-solid{stroke-dasharray:0;}#my-svg .edge-thickness-invisible{stroke-width:0;fill:none;}#my-svg .edge-pattern-dashed{stroke-dasharray:3;}#my-svg .edge-pattern-dotted{stroke-dasharray:2;}#my-svg .marker{fill:#333333;stroke:#333333;}#my-svg .marker.cross{stroke:#333333;}#my-svg svg{font-family:"trebuchet ms",verdana,arial,sans-serif;font-size:16px;}#my-svg p{margin:0;}#my-svg .label{font-family:"trebuchet ms",verdana,arial,sans-serif;color:#333;}#my-svg .cluster-label text{fill:#333;}#my-svg .cluster-label span{color:#333;}#my-svg .cluster-label span p{background-color:transparent;}#my-svg .label text,#my-svg span{fill:#333;color:#333;}#my-svg .node rect,#my-svg .node circle,#my-svg .node ellipse,#my-svg .node polygon,#my-svg .node path{fill:#ECECFF;stroke:#9370DB;stroke-width:1px;}#my-svg .rough-node .label text,#my-svg .node .label text,#my-svg .image-shape .label,#my-svg .icon-shape .label{text-anchor:middle;}#my-svg .node .katex path{fill:#000;stroke:#000;stroke-width:1px;}#my-svg .rough-node .label,#my-svg .node .label,#my-svg .image-shape .label,#my-svg .icon-shape .label{text-align:center;}#my-svg .node.clickable{cursor:pointer;}#my-svg .root .anchor path{fill:#333333!important;stroke-width:0;stroke:#333333;}#my-svg .arrowheadPath{fill:#333333;}#my-svg .edgePath .path{stroke:#333333;stroke-width:1px;}#my-svg .flowchart-link{stroke:#333333;fill:none;}#my-svg .edgeLabel{background-color:rgba(232,232,232, 0.8);text-align:center;}#my-svg .edgeLabel p{background-color:rgba(232,232,232, 0.8);}#my-svg .edgeLabel rect{opacity:0.5;background-color:rgba(232,232,232, 0.8);fill:rgba(232,232,232, 0.8);}#my-svg .labelBkg{background-color:rgba(232, 232, 232, 0.5);}#my-svg .cluster rect{fill:#ffffde;stroke:#aaaa33;stroke-width:1px;}#my-svg .cluster text{fill:#333;}#my-svg .cluster span{color:#333;}#my-svg div.mermaidTooltip{position:absolute;text-align:center;max-width:200px;padding:2px;font-family:"trebuchet ms",verdana,arial,sans-serif;font-size:12px;background:hsl(80, 100%, 96.2745098039%);border:1px solid #aaaa33;border-radius:2px;pointer-events:none;z-index:100;}#my-svg .flowchartTitleText{text-anchor:middle;font-size:18px;fill:#333;}#my-svg rect.text{fill:none;stroke-width:0;}#my-svg .icon-shape,#my-svg .image-shape{background-color:rgba(232,232,232, 0.8);text-align:center;}#my-svg .icon-shape p,#my-svg .image-shape p{background-color:rgba(232,232,232, 0.8);padding:2px;}#my-svg .icon-shape .label rect,#my-svg .image-shape .label rect{opacity:0.5;background-color:rgba(232,232,232, 0.8);fill:rgba(232,232,232, 0.8);}#my-svg .label-icon{display:inline-block;height:1em;overflow:visible;vertical-align:-0.125em;}#my-svg .node .label-icon path{fill:currentColor;stroke:revert;stroke-width:revert;}#my-svg .node .neo-node{stroke:#9370DB;}#my-svg [data-look="neo"].node rect,#my-svg [data-look="neo"].cluster rect,#my-svg [data-look="neo"].node polygon{stroke:#9370DB;filter:drop-shadow(1px 2px 2px rgba(185, 185, 185, 1));}#my-svg [data-look="neo"].swimlane.cluster rect{filter:none;}#my-svg [data-look="neo"].node path{stroke:#9370DB;stroke-width:1px;}#my-svg [data-look="neo"].node .outer-path{filter:drop-shadow(1px 2px 2px rgba(185, 185, 185, 1));}#my-svg [data-look="neo"].node .neo-line path{stroke:#9370DB;filter:none;}#my-svg [data-look="neo"].node circle{stroke:#9370DB;filter:drop-shadow(1px 2px 2px rgba(185, 185, 185, 1));}#my-svg [data-look="neo"].node circle .state-start{fill:#000000;}#my-svg [data-look="neo"].icon-shape .icon{fill:#9370DB;filter:drop-shadow(1px 2px 2px rgba(185, 185, 185, 1));}#my-svg [data-look="neo"].icon-shape .icon-neo path{stroke:#9370DB;filter:drop-shadow(1px 2px 2px rgba(185, 185, 185, 1));}#my-svg :root{--mermaid-font-family:"trebuchet ms",verdana,arial,sans-serif;}#my-svg .a&gt;*{fill:rgb(0, 131, 143)!important;color:rgb(255, 255, 255)!important;stroke:rgb(0, 86, 98)!important;}#my-svg .a span{fill:rgb(0, 131, 143)!important;color:rgb(255, 255, 255)!important;stroke:rgb(0, 86, 98)!important;}#my-svg .a tspan{fill:rgb(255, 255, 255)!important;}#my-svg .x&gt;*{fill:rgb(94, 53, 177)!important;color:rgb(255, 255, 255)!important;stroke:rgb(49, 27, 146)!important;}#my-svg .x span{fill:rgb(94, 53, 177)!important;color:rgb(255, 255, 255)!important;stroke:rgb(49, 27, 146)!important;}#my-svg .x tspan{fill:rgb(255, 255, 255)!important;}#my-svg .t&gt;*{fill:rgb(57, 73, 171)!important;color:rgb(255, 255, 255)!important;stroke:rgb(40, 53, 147)!important;}#my-svg .t span{fill:rgb(57, 73, 171)!important;color:rgb(255, 255, 255)!important;stroke:rgb(40, 53, 147)!important;}#my-svg .t tspan{fill:rgb(255, 255, 255)!important;}#my-svg .io&gt;*{fill:rgb(55, 71, 79)!important;color:rgb(255, 255, 255)!important;stroke:rgb(38, 50, 56)!important;}#my-svg .io span{fill:rgb(55, 71, 79)!important;color:rgb(255, 255, 255)!important;stroke:rgb(38, 50, 56)!important;}#my-svg .io tspan{fill:rgb(255, 255, 255)!important;}</style><g><marker id="my-svg_flowchart-v2-pointEnd" class="marker flowchart-v2" viewBox="0 0 10 10" refX="5" refY="5" markerUnits="userSpaceOnUse" markerWidth="8" markerHeight="8" orient="auto"><path d="M 0 0 L 10 5 L 0 10 z" class="arrowMarkerPath" style="stroke-width: 1; stroke-dasharray: 1, 0;"/></marker><marker id="my-svg_flowchart-v2-pointStart" class="marker flowchart-v2" viewBox="0 0 10 10" refX="4.5" refY="5" markerUnits="userSpaceOnUse" markerWidth="8" markerHeight="8" orient="auto"><path d="M 0 5 L 10 10 L 10 0 z" class="arrowMarkerPath" style="stroke-width: 1; stroke-dasharray: 1, 0;"/></marker><marker id="my-svg_flowchart-v2-pointEnd-margin" class="marker flowchart-v2" viewBox="0 0 11.5 14" refX="11.5" refY="7" markerUnits="userSpaceOnUse" markerWidth="10.5" markerHeight="14" orient="auto"><path d="M 0 0 L 11.5 7 L 0 14 z" class="arrowMarkerPath" style="stroke-width: 0; stroke-dasharray: 1, 0;"/></marker><marker id="my-svg_flowchart-v2-pointStart-margin" class="marker flowchart-v2" viewBox="0 0 11.5 14" refX="1" refY="7" markerUnits="userSpaceOnUse" markerWidth="11.5" markerHeight="14" orient="auto"><polygon points="0,7 11.5,14 11.5,0" class="arrowMarkerPath" style="stroke-width: 0; stroke-dasharray: 1, 0;"/></marker><marker id="my-svg_flowchart-v2-circleEnd" class="marker flowchart-v2" viewBox="0 0 10 10" refX="11" refY="5" markerUnits="userSpaceOnUse" markerWidth="11" markerHeight="11" orient="auto"><circle cx="5" cy="5" r="5" class="arrowMarkerPath" style="stroke-width: 1; stroke-dasharray: 1, 0;"/></marker><marker id="my-svg_flowchart-v2-circleStart" class="marker flowchart-v2" viewBox="0 0 10 10" refX="-1" refY="5" markerUnits="userSpaceOnUse" markerWidth="11" markerHeight="11" orient="auto"><circle cx="5" cy="5" r="5" class="arrowMarkerPath" style="stroke-width: 1; stroke-dasharray: 1, 0;"/></marker><marker id="my-svg_flowchart-v2-circleEnd-margin" class="marker flowchart-v2" viewBox="0 0 10 10" refY="5" refX="12.25" markerUnits="userSpaceOnUse" markerWidth="14" markerHeight="14" orient="auto"><circle cx="5" cy="5" r="5" class="arrowMarkerPath" style="stroke-width: 0; stroke-dasharray: 1, 0;"/></marker><marker id="my-svg_flowchart-v2-circleStart-margin" class="marker flowchart-v2" viewBox="0 0 10 10" refX="-2" refY="5" markerUnits="userSpaceOnUse" markerWidth="14" markerHeight="14" orient="auto"><circle cx="5" cy="5" r="5" class="arrowMarkerPath" style="stroke-width: 0; stroke-dasharray: 1, 0;"/></marker><marker id="my-svg_flowchart-v2-crossEnd" class="marker cross flowchart-v2" viewBox="0 0 11 11" refX="12" refY="5.2" markerUnits="userSpaceOnUse" markerWidth="11" markerHeight="11" orient="auto"><path d="M 1,1 l 9,9 M 10,1 l -9,9" class="arrowMarkerPath" style="stroke-width: 2; stroke-dasharray: 1, 0;"/></marker><marker id="my-svg_flowchart-v2-crossStart" class="marker cross flowchart-v2" viewBox="0 0 11 11" refX="-1" refY="5.2" markerUnits="userSpaceOnUse" markerWidth="11" markerHeight="11" orient="auto"><path d="M 1,1 l 9,9 M 10,1 l -9,9" class="arrowMarkerPath" style="stroke-width: 2; stroke-dasharray: 1, 0;"/></marker><marker id="my-svg_flowchart-v2-crossEnd-margin" class="marker cross flowchart-v2" viewBox="0 0 15 15" refX="17.7" refY="7.5" markerUnits="userSpaceOnUse" markerWidth="12" markerHeight="12" orient="auto"><path d="M 1,1 L 14,14 M 1,14 L 14,1" class="arrowMarkerPath" style="stroke-width: 2.5;"/></marker><marker id="my-svg_flowchart-v2-crossStart-margin" class="marker cross flowchart-v2" viewBox="0 0 15 15" refX="-3.5" refY="7.5" markerUnits="userSpaceOnUse" markerWidth="12" markerHeight="12" orient="auto"><path d="M 1,1 L 14,14 M 1,14 L 14,1" class="arrowMarkerPath" style="stroke-width: 2.5; stroke-dasharray: 1, 0;"/></marker><g class="root"><g class="clusters"/><g class="edgePaths"><path d="M138,110L138,114.167C138,118.333,138,126.667,138,134.333C138,142,138,149,138,152.5L138,156" id="my-svg-L_APP_AX_0" class="edge-thickness-normal edge-pattern-solid edge-thickness-normal edge-pattern-solid flowchart-link" style=";" data-edge="true" data-et="edge" data-id="L_APP_AX_0" data-points="W3sieCI6MTM4LCJ5IjoxMTB9LHsieCI6MTM4LCJ5IjoxMzV9LHsieCI6MTM4LCJ5IjoxNjB9XQ==" data-look="classic" marker-end="url(#my-svg_flowchart-v2-pointEnd)"/><path d="M138,262L138,266.167C138,270.333,138,278.667,138,286.333C138,294,138,301,138,304.5L138,308" id="my-svg-L_AX_TL_0" class="edge-thickness-normal edge-pattern-solid edge-thickness-normal edge-pattern-solid flowchart-link" style=";" data-edge="true" data-et="edge" data-id="L_AX_TL_0" data-points="W3sieCI6MTM4LCJ5IjoyNjJ9LHsieCI6MTM4LCJ5IjoyODd9LHsieCI6MTM4LCJ5IjozMTJ9XQ==" data-look="classic" marker-end="url(#my-svg_flowchart-v2-pointEnd)"/><path d="M138,414L138,418.167C138,422.333,138,430.667,138.07,438.417C138.141,446.167,138.281,453.334,138.351,456.917L138.422,460.501" id="my-svg-L_TL_V_0" class="edge-thickness-normal edge-pattern-solid edge-thickness-normal edge-pattern-solid flowchart-link" style=";" data-edge="true" data-et="edge" data-id="L_TL_V_0" data-points="W3sieCI6MTM4LCJ5Ijo0MTR9LHsieCI6MTM4LCJ5Ijo0Mzl9LHsieCI6MTM4LjUsInkiOjQ2NC41fV0=" data-look="classic" marker-end="url(#my-svg_flowchart-v2-pointEnd)"/></g><g class="edgeLabels"><g class="edgeLabel"><g class="label" data-id="L_APP_AX_0" transform="translate(0, 0)"><foreignObject width="0" height="0"><div xmlns="http://www.w3.org/1999/xhtml" class="labelBkg" style="display: table-cell; white-space: nowrap; line-height: 1.5; max-width: 200px; text-align: center;"><span class="edgeLabel"></span></div></foreignObject></g></g><g class="edgeLabel"><g class="label" data-id="L_AX_TL_0" transform="translate(0, 0)"><foreignObject width="0" height="0"><div xmlns="http://www.w3.org/1999/xhtml" class="labelBkg" style="display: table-cell; white-space: nowrap; line-height: 1.5; max-width: 200px; text-align: center;"><span class="edgeLabel"></span></div></foreignObject></g></g><g class="edgeLabel"><g class="label" data-id="L_TL_V_0" transform="translate(0, 0)"><foreignObject width="0" height="0"><div xmlns="http://www.w3.org/1999/xhtml" class="labelBkg" style="display: table-cell; white-space: nowrap; line-height: 1.5; max-width: 200px; text-align: center;"><span class="edgeLabel"></span></div></foreignObject></g></g></g><g class="nodes"><g class="node default a" id="my-svg-flowchart-APP-0" data-look="classic" transform="translate(138, 59)"><rect class="basic label-container" style="fill:#00838f !important;stroke:#005662 !important" x="-130" y="-51" width="260" height="102"/><g class="label" style="color:#fff !important" transform="translate(-100, -36)"><rect/><foreignObject width="200" height="72"><div style="color: rgb(255, 255, 255) !important; display: table; white-space: break-spaces; line-height: 1.5; max-width: 200px; text-align: center; width: 200px;" xmlns="http://www.w3.org/1999/xhtml"><span style="color:#fff !important" class="nodeLabel"><p>Per Application<br />enabled · deep-scan · surface actions · allowlist</p></span></div></foreignObject></g></g><g class="node default x" id="my-svg-flowchart-AX-1" data-look="classic" transform="translate(138, 211)"><rect class="basic label-container" style="fill:#5e35b1 !important;stroke:#311b92 !important" x="-130" y="-51" width="260" height="102"/><g class="label" style="color:#fff !important" transform="translate(-100, -36)"><rect/><foreignObject width="200" height="72"><div style="color: rgb(255, 255, 255) !important; display: table; white-space: break-spaces; line-height: 1.5; max-width: 200px; text-align: center; width: 200px;" xmlns="http://www.w3.org/1999/xhtml"><span style="color:#fff !important" class="nodeLabel"><p>Per Axis<br />action + threshold for each GLAD axis</p></span></div></foreignObject></g></g><g class="node default t" id="my-svg-flowchart-TL-2" data-look="classic" transform="translate(138, 363)"><rect class="basic label-container" style="fill:#3949ab !important;stroke:#283593 !important" x="-130" y="-51" width="260" height="102"/><g class="label" style="color:#fff !important" transform="translate(-100, -36)"><rect/><foreignObject width="200" height="72"><div style="color: rgb(255, 255, 255) !important; display: table; white-space: break-spaces; line-height: 1.5; max-width: 200px; text-align: center; width: 200px;" xmlns="http://www.w3.org/1999/xhtml"><span style="color:#fff !important" class="nodeLabel"><p>Per Tool<br />trusted · blocked · egress · action</p></span></div></foreignObject></g></g><g class="node default io" id="my-svg-flowchart-V-6" data-look="classic" transform="translate(138, 483.5)"><g class="basic label-container outer-path"><path d="M-17.3359375 -19.5 C-3.64519507620221 -19.5, 10.04554734759558 -19.5, 17.3359375 -19.5 C17.3359375 -19.5, 17.3359375 -19.5, 17.3359375 -19.5 C17.672967968998417 -19.489192088849233, 18.009998437996835 -19.478384177698466, 18.5853067896239 -19.45993515863156 C19.052856370003724 -19.414831212922955, 19.520405950383545 -19.369727267214355, 19.829542152847864 -19.3399052695533 C20.14587045530851 -19.288763762774085, 20.462198757769155 -19.23762225599487, 21.06353075967676 -19.140403561325776 C21.394326687043588 -19.064901549549457, 21.72512261441042 -18.989399537773142, 22.28220188623539 -18.862249829261074 C22.58962394155049 -18.77100857693485, 22.897045996865586 -18.67976732460863, 23.480547751460602 -18.50658706670804 C23.716267959139383 -18.419839851308534, 23.951988166818165 -18.33309263590903, 24.653644095147794 -18.074876768247425 C25.082882802765514 -17.88486552529892, 25.51212151038323 -17.694854282350416, 25.79667041279238 -17.568892924097174 C26.13128551036099 -17.394324442026832, 26.465900607929598 -17.219755959956487, 26.904929764076783 -16.990714730406097 C27.151221993922285 -16.841410933299954, 27.397514223767782 -16.692107136193815, 27.973868073605697 -16.342718045390892 C28.347589185990955 -16.08202637551715, 28.72131029837621 -15.821334705643403, 28.999092844578712 -15.627565626425154 C29.273984774102896 -15.40834662781108, 29.54887670362708 -15.189127629197005, 29.97639120850187 -14.848196188198123 C30.216084363366143 -14.630513206883741, 30.45577751823042 -14.412830225569357, 30.901747236767985 -14.007812326905688 C31.10163588911208 -13.801410882196842, 31.301524541456182 -13.595009437487997, 31.771358442968648 -13.10986736009568 C32.060569824898636 -12.77014321428689, 32.34978120682863 -12.430419068478098, 32.58165140812658 -12.158051136245305 C32.73245787210739 -11.955984213262521, 32.8832643360882 -11.753917290279738, 33.329296464640635 -11.156274872382312 C33.53902100799939 -10.834081654857977, 33.74874555135815 -10.511888437333644, 34.01122137860425 -10.108655082055241 C34.23337813840552 -9.714193259216794, 34.45553489820679 -9.319731436378344, 34.624623974273504 -9.019496659696287 C34.74259361706895 -8.774530172285557, 34.860563259864385 -8.529563684874827, 35.16698364880834 -7.893275190886684 C35.31764269977317 -7.52114442220897, 35.46830175073799 -7.149013653531255, 35.636071729970325 -6.734618561215508 C35.72796576270686 -6.457848375938846, 35.8198597954434 -6.181078190662182, 36.02996063421488 -5.548287939305138 C36.10389626866591 -5.266339321236681, 36.177831903116946 -4.984390703168224, 36.34703178754556 -4.339158212148133 C36.4032647245175 -4.050413965632648, 36.45949766148944 -3.7616697191171635, 36.585982276581774 -3.1121979531509023 C36.62442683543119 -2.8140295464516907, 36.6628713942806 -2.5158611397524795, 36.74583020250937 -1.872449005199798 C36.765909575213584 -1.559696567553659, 36.78598894791781 -1.2469441299075201, 36.82591871591342 -0.6250057626472757 C36.82591871591342 -0.3382888143918766, 36.82591871591342 -0.05157186613647746, 36.82591871591342 0.625005762647271 C36.809239168224835 0.8848031813854857, 36.79255962053625 1.1446006001237006, 36.74583020250937 1.8724490051997846 C36.689742483729816 2.307454276281154, 36.633654764950265 2.7424595473625226, 36.585982276581774 3.1121979531508885 C36.5225572855575 3.437871877183951, 36.45913229453322 3.7635458012170133, 36.34703178754556 4.339158212148129 C36.24433186875368 4.7307975129279285, 36.141631949961806 5.122436813707729, 36.02996063421489 5.548287939305125 C35.87460491126894 6.016194624245334, 35.71924918832299 6.484101309185542, 35.636071729970325 6.734618561215495 C35.452334884072236 7.188452122894034, 35.26859803817415 7.642285684572575, 35.16698364880834 7.893275190886679 C35.00623411522682 8.227075036857741, 34.845484581645294 8.560874882828802, 34.624623974273504 9.019496659696284 C34.389007845148534 9.437856955677885, 34.15339171602357 9.856217251659485, 34.01122137860425 10.108655082055236 C33.805023235521006 10.425430801785314, 33.59882509243777 10.742206521515392, 33.32929646464064 11.156274872382301 C33.09597585794285 11.468903229412806, 32.862655251245044 11.78153158644331, 32.58165140812658 12.158051136245302 C32.26689895015341 12.527777283302811, 31.952146492180244 12.897503430360322, 31.77135844296866 13.10986736009567 C31.426644459829294 13.465812849231416, 31.081930476689934 13.821758338367161, 30.90174723676799 14.007812326905684 C30.56928127064364 14.309749120772391, 30.236815304519293 14.611685914639098, 29.976391208501887 14.848196188198111 C29.701257152907477 15.067608275909945, 29.426123097313067 15.28702036362178, 28.999092844578715 15.627565626425152 C28.6642354210413 15.86114766934062, 28.329377997503883 16.094729712256086, 27.973868073605708 16.34271804539089 C27.62018609122859 16.55712214157393, 27.26650410885147 16.771526237756976, 26.904929764076787 16.990714730406093 C26.553159722944983 17.174232935545092, 26.201389681813176 17.357751140684087, 25.796670412792388 17.56889292409717 C25.347534834093196 17.76771192165373, 24.898399255394 17.966530919210296, 24.653644095147804 18.07487676824742 C24.312648686234656 18.200366230854463, 23.971653277321508 18.32585569346151, 23.480547751460616 18.506587066708033 C23.10196316519439 18.618948984680806, 22.723378578928166 18.731310902653576, 22.282201886235413 18.86224982926107 C21.832626282359907 18.964862527090666, 21.383050678484402 19.06747522492026, 21.063530759676766 19.140403561325773 C20.720114246183464 19.195924479992534, 20.37669773269016 19.251445398659293, 19.82954215284788 19.3399052695533 C19.391342774130518 19.382177836606306, 18.95314339541316 19.42445040365931, 18.5853067896239 19.45993515863156 C18.094806183642497 19.47566455836387, 17.604305577661094 19.491393958096182, 17.335937500000004 19.5 C17.335937500000004 19.5, 17.335937500000004 19.5, 17.3359375 19.5 C6.266211978807604 19.5, -4.803513542384792 19.5, -17.335937499999996 19.5 C-17.680106350371126 19.488963174852625, -18.02427520074226 19.477926349705253, -18.585306789623893 19.45993515863156 C-19.00584889156447 19.419365967833226, -19.426390993505045 19.378796777034896, -19.82954215284787 19.3399052695533 C-20.28291366088835 19.26660768008187, -20.73628516892883 19.19331009061044, -21.06353075967676 19.140403561325773 C-21.35863698609947 19.073047490892886, -21.653743212522183 19.00569142046, -22.282201886235388 18.862249829261074 C-22.723061523034335 18.731405003178605, -23.163921159833283 18.60056017709613, -23.48054775146059 18.506587066708043 C-23.8910503643042 18.35551831053704, -24.301552977147804 18.20444955436604, -24.653644095147797 18.074876768247425 C-24.913839727970057 17.95969588002622, -25.174035360792313 17.84451499180502, -25.79667041279238 17.568892924097174 C-26.19373988293213 17.3617420358604, -26.590809353071887 17.154591147623623, -26.90492976407678 16.990714730406097 C-27.20303180928856 16.81000351875665, -27.50113385450034 16.629292307107196, -27.973868073605686 16.3427180453909 C-28.28128826466473 16.128275028113695, -28.58870845572378 15.913832010836488, -28.999092844578712 15.627565626425156 C-29.298938063114797 15.388447043859, -29.59878328165088 15.149328461292843, -29.97639120850187 14.848196188198125 C-30.208531658265116 14.637372373822869, -30.440672108028362 14.426548559447612, -30.901747236767974 14.007812326905697 C-31.21068125335078 13.688812590829484, -31.51961526993359 13.369812854753269, -31.771358442968655 13.109867360095677 C-32.02803283927963 12.808363009001905, -32.28470723559061 12.506858657908131, -32.581651408126575 12.158051136245307 C-32.828454534696924 11.827357430868416, -33.07525766126727 11.496663725491523, -33.329296464640635 11.156274872382316 C-33.529619874051185 10.848524321160363, -33.729943283461736 10.540773769938411, -34.01122137860425 10.108655082055249 C-34.17032130265508 9.82615705628871, -34.32942122670591 9.543659030522173, -34.624623974273504 9.019496659696289 C-34.7453719916281 8.768760818065791, -34.86612000898268 8.518024976435296, -35.16698364880834 7.893275190886686 C-35.2848454913184 7.6021541611831305, -35.40270733382846 7.311033131479574, -35.636071729970325 6.73461856121551 C-35.729982906105924 6.451773061409028, -35.82389408224152 6.168927561602546, -36.02996063421488 5.5482879393051325 C-36.13388760897912 5.151969342293308, -36.23781458374336 4.755650745281483, -36.34703178754556 4.339158212148136 C-36.41272758709882 4.00182416625428, -36.47842338665209 3.6644901203604245, -36.585982276581774 3.112197953150904 C-36.636067494345156 2.7237468946230736, -36.68615271210854 2.335295836095243, -36.74583020250937 1.872449005199809 C-36.772573492840436 1.45590067149799, -36.799316783171506 1.039352337796171, -36.82591871591342 0.6250057626472781 C-36.82591871591342 0.18137136459735498, -36.82591871591342 -0.2622630334525682, -36.82591871591342 -0.6250057626472687 C-36.799461343442836 -1.037100694883284, -36.77300397097225 -1.4491956271192992, -36.74583020250937 -1.8724490051997822 C-36.70364173642762 -2.1996544170748664, -36.66145327034587 -2.5268598289499504, -36.585982276581774 -3.112197953150895 C-36.511743191129476 -3.4933999665121998, -36.43750410567717 -3.8746019798735043, -36.34703178754556 -4.339158212148126 C-36.280637918091166 -4.592346811662786, -36.21424404863677 -4.845535411177446, -36.02996063421489 -5.548287939305123 C-35.90773672064344 -5.916406893246265, -35.785512807072 -6.284525847187407, -35.63607172997033 -6.734618561215485 C-35.449861860774135 -7.1945605382529925, -35.263651991577945 -7.654502515290501, -35.16698364880834 -7.893275190886676 C-35.03783772697044 -8.161449460863137, -34.90869180513254 -8.429623730839598, -34.624623974273504 -9.019496659696282 C-34.459222457871086 -9.31318380078848, -34.29382094146867 -9.606870941880677, -34.01122137860425 -10.108655082055243 C-33.744592306667734 -10.518268936480478, -33.47796323473122 -10.927882790905713, -33.32929646464064 -11.156274872382308 C-33.17924770326164 -11.357326542906804, -33.029198941882626 -11.5583782134313, -32.58165140812659 -12.158051136245302 C-32.28236510872072 -12.509609853400312, -31.983078809314843 -12.86116857055532, -31.771358442968662 -13.10986736009567 C-31.568523930667123 -13.319310647070173, -31.36568941836558 -13.528753934044678, -30.901747236767996 -14.007812326905677 C-30.560315991844075 -14.317891149769878, -30.218884746920153 -14.627969972634077, -29.976391208501887 -14.848196188198107 C-29.628382940734152 -15.125723520853938, -29.28037467296642 -15.40325085350977, -28.99909284457872 -15.627565626425149 C-28.6274015659787 -15.886841372120399, -28.255710287378687 -16.14611711781565, -27.97386807360571 -16.342718045390885 C-27.583241579602156 -16.579518121631924, -27.1926150855986 -16.816318197872963, -26.90492976407679 -16.99071473040609 C-26.58540610722361 -17.157410017521723, -26.265882450370427 -17.32410530463736, -25.796670412792388 -17.56889292409717 C-25.489240804710263 -17.70498289201982, -25.18181119662814 -17.841072859942475, -24.653644095147804 -18.07487676824742 C-24.261542473560493 -18.21917378953921, -23.869440851973177 -18.363470810830997, -23.48054775146062 -18.506587066708033 C-23.113361641097125 -18.615565976864694, -22.746175530733634 -18.724544887021352, -22.282201886235413 -18.862249829261067 C-21.96478747661594 -18.934697596934114, -21.64737306699646 -19.00714536460716, -21.063530759676766 -19.140403561325773 C-20.59410239049869 -19.216297099583112, -20.12467402132061 -19.29219063784045, -19.829542152847882 -19.3399052695533 C-19.52419377714878 -19.369361860121842, -19.21884540144968 -19.39881845069038, -18.585306789623903 -19.45993515863156 C-18.254209212113086 -19.470552813499992, -17.923111634602268 -19.481170468368425, -17.335937500000007 -19.5 C-17.335937500000004 -19.5, -17.335937500000004 -19.5, -17.3359375 -19.5" stroke="none" stroke-width="0" fill="#37474f" style="fill:#37474f !important;stroke:#263238 !important"/><path d="M-17.3359375 -19.5 C-8.14641109212528 -19.5, 1.0431153157494393 -19.5, 17.3359375 -19.5 M-17.3359375 -19.5 C-9.240935129513597 -19.5, -1.1459327590271933 -19.5, 17.3359375 -19.5 M17.3359375 -19.5 C17.3359375 -19.5, 17.3359375 -19.5, 17.3359375 -19.5 M17.3359375 -19.5 C17.3359375 -19.5, 17.3359375 -19.5, 17.3359375 -19.5 M17.3359375 -19.5 C17.643569766534686 -19.490134831982115, 17.95120203306937 -19.48026966396423, 18.5853067896239 -19.45993515863156 M17.3359375 -19.5 C17.596891793781566 -19.491631703715143, 17.857846087563136 -19.48326340743029, 18.5853067896239 -19.45993515863156 M18.5853067896239 -19.45993515863156 C18.87935312298974 -19.431568862494213, 19.173399456355583 -19.403202566356864, 19.829542152847864 -19.3399052695533 M18.5853067896239 -19.45993515863156 C19.048491081615722 -19.41525232704372, 19.511675373607545 -19.37056949545588, 19.829542152847864 -19.3399052695533 M19.829542152847864 -19.3399052695533 C20.07889342154943 -19.2995920901776, 20.328244690250997 -19.2592789108019, 21.06353075967676 -19.140403561325776 M19.829542152847864 -19.3399052695533 C20.23144813907918 -19.274928226526892, 20.633354125310497 -19.20995118350049, 21.06353075967676 -19.140403561325776 M21.06353075967676 -19.140403561325776 C21.508680701794603 -19.038800991912225, 21.953830643912447 -18.937198422498675, 22.28220188623539 -18.862249829261074 M21.06353075967676 -19.140403561325776 C21.321729105439108 -19.081471473807188, 21.57992745120146 -19.0225393862886, 22.28220188623539 -18.862249829261074 M22.28220188623539 -18.862249829261074 C22.750048738558664 -18.723395339269768, 23.217895590881938 -18.58454084927846, 23.480547751460602 -18.50658706670804 M22.28220188623539 -18.862249829261074 C22.623872161442797 -18.76084388504339, 22.9655424366502 -18.659437940825704, 23.480547751460602 -18.50658706670804 M23.480547751460602 -18.50658706670804 C23.716852817357974 -18.419624618077723, 23.95315788325535 -18.332662169447406, 24.653644095147794 -18.074876768247425 M23.480547751460602 -18.50658706670804 C23.739928650788777 -18.41113249806452, 23.999309550116948 -18.315677929421003, 24.653644095147794 -18.074876768247425 M24.653644095147794 -18.074876768247425 C25.07248934766424 -17.889466399561364, 25.491334600180686 -17.7040560308753, 25.79667041279238 -17.568892924097174 M24.653644095147794 -18.074876768247425 C25.089760419042342 -17.881821008590407, 25.52587674293689 -17.68876524893339, 25.79667041279238 -17.568892924097174 M25.79667041279238 -17.568892924097174 C26.082674143065823 -17.419684961207654, 26.368677873339262 -17.27047699831813, 26.904929764076783 -16.990714730406097 M25.79667041279238 -17.568892924097174 C26.084172586303463 -17.418903224330375, 26.371674759814542 -17.268913524563576, 26.904929764076783 -16.990714730406097 M26.904929764076783 -16.990714730406097 C27.18819538524399 -16.81899744620097, 27.471461006411197 -16.647280161995845, 27.973868073605697 -16.342718045390892 M26.904929764076783 -16.990714730406097 C27.22347989748344 -16.797607767526607, 27.542030030890096 -16.604500804647117, 27.973868073605697 -16.342718045390892 M27.973868073605697 -16.342718045390892 C28.37847601000224 -16.060481064155933, 28.783083946398786 -15.778244082920976, 28.999092844578712 -15.627565626425154 M27.973868073605697 -16.342718045390892 C28.333081322648255 -16.092146432949733, 28.692294571690816 -15.84157482050857, 28.999092844578712 -15.627565626425154 M28.999092844578712 -15.627565626425154 C29.351590748481314 -15.346457928426004, 29.704088652383913 -15.065350230426851, 29.97639120850187 -14.848196188198123 M28.999092844578712 -15.627565626425154 C29.29053231432519 -15.395150404832338, 29.581971784071673 -15.162735183239521, 29.97639120850187 -14.848196188198123 M29.97639120850187 -14.848196188198123 C30.257222062987257 -14.593153036531731, 30.538052917472648 -14.33810988486534, 30.901747236767985 -14.007812326905688 M29.97639120850187 -14.848196188198123 C30.312132321809457 -14.543284992315245, 30.647873435117045 -14.238373796432366, 30.901747236767985 -14.007812326905688 M30.901747236767985 -14.007812326905688 C31.18742041318376 -13.712831318052428, 31.473093589599532 -13.417850309199169, 31.771358442968648 -13.10986736009568 M30.901747236767985 -14.007812326905688 C31.09992429063481 -13.803178248149475, 31.298101344501635 -13.598544169393262, 31.771358442968648 -13.10986736009568 M31.771358442968648 -13.10986736009568 C32.045517015079646 -12.787825101229418, 32.31967558719065 -12.465782842363152, 32.58165140812658 -12.158051136245305 M31.771358442968648 -13.10986736009568 C32.07716737728145 -12.750646784830554, 32.38297631159425 -12.391426209565427, 32.58165140812658 -12.158051136245305 M32.58165140812658 -12.158051136245305 C32.74425664582768 -11.940174931367729, 32.906861883528784 -11.722298726490152, 33.329296464640635 -11.156274872382312 M32.58165140812658 -12.158051136245305 C32.808875021115554 -11.853592195337075, 33.036098634104526 -11.549133254428845, 33.329296464640635 -11.156274872382312 M33.329296464640635 -11.156274872382312 C33.501489142810115 -10.891740678505661, 33.673681820979596 -10.62720648462901, 34.01122137860425 -10.108655082055241 M33.329296464640635 -11.156274872382312 C33.60018290371621 -10.740120558768334, 33.87106934279178 -10.323966245154356, 34.01122137860425 -10.108655082055241 M34.01122137860425 -10.108655082055241 C34.20806588830458 -9.759137722414275, 34.40491039800491 -9.409620362773309, 34.624623974273504 -9.019496659696287 M34.01122137860425 -10.108655082055241 C34.18274803704382 -9.804092131038189, 34.3542746954834 -9.499529180021137, 34.624623974273504 -9.019496659696287 M34.624623974273504 -9.019496659696287 C34.78145728804478 -8.693828927954891, 34.93829060181605 -8.368161196213494, 35.16698364880834 -7.893275190886684 M34.624623974273504 -9.019496659696287 C34.775029129056165 -8.707177137635316, 34.925434283838825 -8.394857615574347, 35.16698364880834 -7.893275190886684 M35.16698364880834 -7.893275190886684 C35.3474888152605 -7.447423939919879, 35.527993981712655 -7.001572688953075, 35.636071729970325 -6.734618561215508 M35.16698364880834 -7.893275190886684 C35.31373182721386 -7.530804353042046, 35.46048000561937 -7.168333515197409, 35.636071729970325 -6.734618561215508 M35.636071729970325 -6.734618561215508 C35.74431269554637 -6.408614018756303, 35.85255366112241 -6.082609476297098, 36.02996063421488 -5.548287939305138 M35.636071729970325 -6.734618561215508 C35.715848685854084 -6.494343080825391, 35.79562564173784 -6.254067600435274, 36.02996063421488 -5.548287939305138 M36.02996063421488 -5.548287939305138 C36.13088796222044 -5.163408295439283, 36.231815290226 -4.778528651573429, 36.34703178754556 -4.339158212148133 M36.02996063421488 -5.548287939305138 C36.14455100238766 -5.111305201682605, 36.25914137056044 -4.674322464060072, 36.34703178754556 -4.339158212148133 M36.34703178754556 -4.339158212148133 C36.397189164364 -4.081610682950796, 36.447346541182434 -3.8240631537534577, 36.585982276581774 -3.1121979531509023 M36.34703178754556 -4.339158212148133 C36.42759022323069 -3.9255076709363967, 36.50814865891582 -3.511857129724661, 36.585982276581774 -3.1121979531509023 M36.585982276581774 -3.1121979531509023 C36.62561676993306 -2.8048006494342888, 36.665251263284354 -2.497403345717675, 36.74583020250937 -1.872449005199798 M36.585982276581774 -3.1121979531509023 C36.639458457239655 -2.6974472560346716, 36.69293463789754 -2.282696558918441, 36.74583020250937 -1.872449005199798 M36.74583020250937 -1.872449005199798 C36.76945225019166 -1.5045165451743323, 36.79307429787396 -1.1365840851488667, 36.82591871591342 -0.6250057626472757 M36.74583020250937 -1.872449005199798 C36.777395874070386 -1.380788191285441, 36.808961545631405 -0.8891273773710839, 36.82591871591342 -0.6250057626472757 M36.82591871591342 -0.6250057626472757 C36.82591871591342 -0.14826772308270542, 36.82591871591342 0.32847031648186487, 36.82591871591342 0.625005762647271 M36.82591871591342 -0.6250057626472757 C36.82591871591342 -0.20424960517396812, 36.82591871591342 0.21650655229933946, 36.82591871591342 0.625005762647271 M36.82591871591342 0.625005762647271 C36.80725314693572 0.9157370660509692, 36.788587577958026 1.2064683694546672, 36.74583020250937 1.8724490051997846 M36.82591871591342 0.625005762647271 C36.7993738952332 1.0384627713351835, 36.77282907455299 1.4519197800230959, 36.74583020250937 1.8724490051997846 M36.74583020250937 1.8724490051997846 C36.709170835432325 2.156771817038506, 36.672511468355275 2.4410946288772277, 36.585982276581774 3.1121979531508885 M36.74583020250937 1.8724490051997846 C36.709348713431034 2.1553922304064583, 36.67286722435271 2.4383354556131325, 36.585982276581774 3.1121979531508885 M36.585982276581774 3.1121979531508885 C36.519580183469586 3.4531586671946175, 36.453178090357405 3.7941193812383465, 36.34703178754556 4.339158212148129 M36.585982276581774 3.1121979531508885 C36.49091213534281 3.600363035331493, 36.395841994103854 4.088528117512097, 36.34703178754556 4.339158212148129 M36.34703178754556 4.339158212148129 C36.27735589675009 4.604862581473369, 36.207680005954614 4.870566950798608, 36.02996063421489 5.548287939305125 M36.34703178754556 4.339158212148129 C36.270397580450826 4.631397657275798, 36.1937633733561 4.923637102403467, 36.02996063421489 5.548287939305125 M36.02996063421489 5.548287939305125 C35.92509274889262 5.864133301467333, 35.82022486357034 6.17997866362954, 35.636071729970325 6.734618561215495 M36.02996063421489 5.548287939305125 C35.93758250009093 5.826516160829598, 35.845204365966985 6.104744382354072, 35.636071729970325 6.734618561215495 M35.636071729970325 6.734618561215495 C35.50552756227444 7.0570651793241295, 35.37498339457854 7.379511797432764, 35.16698364880834 7.893275190886679 M35.636071729970325 6.734618561215495 C35.52355961760163 7.012525654039884, 35.411047505232936 7.290432746864274, 35.16698364880834 7.893275190886679 M35.16698364880834 7.893275190886679 C35.015189589083356 8.208478803778187, 34.86339552935838 8.523682416669695, 34.624623974273504 9.019496659696284 M35.16698364880834 7.893275190886679 C34.96894967964886 8.304496965094497, 34.77091571048937 8.715718739302314, 34.624623974273504 9.019496659696284 M34.624623974273504 9.019496659696284 C34.45693890074497 9.317238487701122, 34.28925382721645 9.61498031570596, 34.01122137860425 10.108655082055236 M34.624623974273504 9.019496659696284 C34.42859590177042 9.367564352420299, 34.232567829267346 9.715632045144314, 34.01122137860425 10.108655082055236 M34.01122137860425 10.108655082055236 C33.75397747912295 10.503850791317577, 33.49673357964166 10.899046500579917, 33.32929646464064 11.156274872382301 M34.01122137860425 10.108655082055236 C33.8065541688942 10.423078877010921, 33.60188695918415 10.737502671966608, 33.32929646464064 11.156274872382301 M33.32929646464064 11.156274872382301 C33.109248932609745 11.451118518561135, 32.88920140057885 11.745962164739966, 32.58165140812658 12.158051136245302 M33.32929646464064 11.156274872382301 C33.115186390112065 11.443162866421536, 32.90107631558348 11.730050860460771, 32.58165140812658 12.158051136245302 M32.58165140812658 12.158051136245302 C32.307986353617835 12.479513681254012, 32.03432129910909 12.800976226262723, 31.77135844296866 13.10986736009567 M32.58165140812658 12.158051136245302 C32.291678351656856 12.498669988308977, 32.00170529518713 12.839288840372655, 31.77135844296866 13.10986736009567 M31.77135844296866 13.10986736009567 C31.55747493071377 13.330719646661775, 31.343591418458878 13.55157193322788, 30.90174723676799 14.007812326905684 M31.77135844296866 13.10986736009567 C31.434610550065948 13.457587207033901, 31.097862657163237 13.805307053972133, 30.90174723676799 14.007812326905684 M30.90174723676799 14.007812326905684 C30.68081863593839 14.208453836728669, 30.459890035108792 14.409095346551654, 29.976391208501887 14.848196188198111 M30.90174723676799 14.007812326905684 C30.604301557661767 14.277944622688548, 30.30685587855555 14.54807691847141, 29.976391208501887 14.848196188198111 M29.976391208501887 14.848196188198111 C29.7418486175445 15.03523766304616, 29.50730602658711 15.222279137894208, 28.999092844578715 15.627565626425152 M29.976391208501887 14.848196188198111 C29.7058748287502 15.063925802306887, 29.435358448998514 15.279655416415665, 28.999092844578715 15.627565626425152 M28.999092844578715 15.627565626425152 C28.67539770296014 15.853361344681431, 28.35170256134157 16.07915706293771, 27.973868073605708 16.34271804539089 M28.999092844578715 15.627565626425152 C28.59190521372133 15.91160209084282, 28.184717582863943 16.195638555260487, 27.973868073605708 16.34271804539089 M27.973868073605708 16.34271804539089 C27.6291639453442 16.55167971364932, 27.284459817082695 16.760641381907757, 26.904929764076787 16.990714730406093 M27.973868073605708 16.34271804539089 C27.714427601692368 16.4999923841062, 27.454987129779028 16.657266722821515, 26.904929764076787 16.990714730406093 M26.904929764076787 16.990714730406093 C26.55499052832458 17.17327780555124, 26.205051292572374 17.35584088069639, 25.796670412792388 17.56889292409717 M26.904929764076787 16.990714730406093 C26.56054567858484 17.17037968721871, 26.21616159309289 17.35004464403132, 25.796670412792388 17.56889292409717 M25.796670412792388 17.56889292409717 C25.38961366549884 17.749084871214638, 24.98255691820529 17.929276818332106, 24.653644095147804 18.07487676824742 M25.796670412792388 17.56889292409717 C25.348625725774735 17.767229016266466, 24.90058103875708 17.965565108435765, 24.653644095147804 18.07487676824742 M24.653644095147804 18.07487676824742 C24.263735565564197 18.218366711409125, 23.873827035980586 18.36185665457083, 23.480547751460616 18.506587066708033 M24.653644095147804 18.07487676824742 C24.212264485078407 18.23730854482135, 23.77088487500901 18.399740321395274, 23.480547751460616 18.506587066708033 M23.480547751460616 18.506587066708033 C23.015546959932372 18.644596860794653, 22.55054616840413 18.782606654881274, 22.282201886235413 18.86224982926107 M23.480547751460616 18.506587066708033 C23.184682947255553 18.594398187570047, 22.88881814305049 18.682209308432064, 22.282201886235413 18.86224982926107 M22.282201886235413 18.86224982926107 C21.933577338057 18.941821107395008, 21.584952789878585 19.021392385528944, 21.063530759676766 19.140403561325773 M22.282201886235413 18.86224982926107 C21.81712298475071 18.968401053601493, 21.35204408326601 19.074552277941915, 21.063530759676766 19.140403561325773 M21.063530759676766 19.140403561325773 C20.810446429529282 19.181320273125724, 20.5573620993818 19.222236984925676, 19.82954215284788 19.3399052695533 M21.063530759676766 19.140403561325773 C20.73780935331666 19.19306367229884, 20.412087946956554 19.245723783271913, 19.82954215284788 19.3399052695533 M19.82954215284788 19.3399052695533 C19.53727358307229 19.368100066975167, 19.24500501329671 19.396294864397035, 18.5853067896239 19.45993515863156 M19.82954215284788 19.3399052695533 C19.47315909841787 19.37428511420083, 19.116776043987866 19.408664958848362, 18.5853067896239 19.45993515863156 M18.5853067896239 19.45993515863156 C18.226535654105245 19.47144025064199, 17.86776451858659 19.48294534265242, 17.335937500000004 19.5 M18.5853067896239 19.45993515863156 C18.320633483961263 19.468422716388822, 18.05596017829863 19.476910274146086, 17.335937500000004 19.5 M17.335937500000004 19.5 C17.335937500000004 19.5, 17.3359375 19.5, 17.3359375 19.5 M17.335937500000004 19.5 C17.335937500000004 19.5, 17.3359375 19.5, 17.3359375 19.5 M17.3359375 19.5 C4.410082467719137 19.5, -8.515772564561725 19.5, -17.335937499999996 19.5 M17.3359375 19.5 C8.408867767217279 19.5, -0.5182019655654422 19.5, -17.335937499999996 19.5 M-17.335937499999996 19.5 C-17.724056853272902 19.48755376776903, -18.112176206545804 19.47510753553806, -18.585306789623893 19.45993515863156 M-17.335937499999996 19.5 C-17.73054588198186 19.487345677248463, -18.12515426396373 19.474691354496922, -18.585306789623893 19.45993515863156 M-18.585306789623893 19.45993515863156 C-18.986232905652713 19.42125829840246, -19.387159021681533 19.38258143817336, -19.82954215284787 19.3399052695533 M-18.585306789623893 19.45993515863156 C-18.83554456827371 19.43579502108017, -19.085782346923526 19.411654883528783, -19.82954215284787 19.3399052695533 M-19.82954215284787 19.3399052695533 C-20.154768072443613 19.287325265037733, -20.479993992039354 19.234745260522168, -21.06353075967676 19.140403561325773 M-19.82954215284787 19.3399052695533 C-20.094414377097557 19.297082782451387, -20.359286601347243 19.254260295349475, -21.06353075967676 19.140403561325773 M-21.06353075967676 19.140403561325773 C-21.39423501656692 19.06492247273755, -21.724939273457085 18.989441384149327, -22.282201886235388 18.862249829261074 M-21.06353075967676 19.140403561325773 C-21.440527150374063 19.054356595280474, -21.817523541071363 18.968309629235176, -22.282201886235388 18.862249829261074 M-22.282201886235388 18.862249829261074 C-22.744269500742554 18.72511058671775, -23.20633711524972 18.587971344174427, -23.48054775146059 18.506587066708043 M-22.282201886235388 18.862249829261074 C-22.673975910429686 18.745973355344024, -23.06574993462398 18.629696881426977, -23.48054775146059 18.506587066708043 M-23.48054775146059 18.506587066708043 C-23.78589010540814 18.394218257901567, -24.09123245935569 18.28184944909509, -24.653644095147797 18.074876768247425 M-23.48054775146059 18.506587066708043 C-23.835763027854405 18.3758645614211, -24.19097830424822 18.245142056134156, -24.653644095147797 18.074876768247425 M-24.653644095147797 18.074876768247425 C-25.10503737890467 17.87505835163427, -25.556430662661544 17.67523993502111, -25.79667041279238 17.568892924097174 M-24.653644095147797 18.074876768247425 C-24.968586033929476 17.93546131436945, -25.28352797271116 17.79604586049148, -25.79667041279238 17.568892924097174 M-25.79667041279238 17.568892924097174 C-26.17614014080775 17.370923810053515, -26.555609868823122 17.17295469600986, -26.90492976407678 16.990714730406097 M-25.79667041279238 17.568892924097174 C-26.072633048611014 17.424923393753097, -26.34859568442965 17.28095386340902, -26.90492976407678 16.990714730406097 M-26.90492976407678 16.990714730406097 C-27.21005691033121 16.805744861220514, -27.515184056585646 16.62077499203493, -27.973868073605686 16.3427180453909 M-26.90492976407678 16.990714730406097 C-27.20972023210907 16.805948957537318, -27.51451070014136 16.62118318466854, -27.973868073605686 16.3427180453909 M-27.973868073605686 16.3427180453909 C-28.323784242866108 16.09863167334166, -28.673700412126532 15.854545301292422, -28.999092844578712 15.627565626425156 M-27.973868073605686 16.3427180453909 C-28.317134928902632 16.10326994691842, -28.66040178419958 15.86382184844594, -28.999092844578712 15.627565626425156 M-28.999092844578712 15.627565626425156 C-29.38209855637656 15.322128763476405, -29.765104268174415 15.016691900527656, -29.97639120850187 14.848196188198125 M-28.999092844578712 15.627565626425156 C-29.24407676759643 15.432197467114511, -29.489060690614146 15.236829307803868, -29.97639120850187 14.848196188198125 M-29.97639120850187 14.848196188198125 C-30.299313797577675 14.554926436862985, -30.622236386653483 14.261656685527843, -30.901747236767974 14.007812326905697 M-29.97639120850187 14.848196188198125 C-30.17670642566725 14.66627520801874, -30.377021642832627 14.484354227839356, -30.901747236767974 14.007812326905697 M-30.901747236767974 14.007812326905697 C-31.16883585762173 13.732021397490609, -31.43592447847549 13.456230468075523, -31.771358442968655 13.109867360095677 M-30.901747236767974 14.007812326905697 C-31.196419913618314 13.703538594981023, -31.491092590468657 13.399264863056347, -31.771358442968655 13.109867360095677 M-31.771358442968655 13.109867360095677 C-32.03786567540304 12.796812800187126, -32.30437290783742 12.483758240278576, -32.581651408126575 12.158051136245307 M-31.771358442968655 13.109867360095677 C-31.957465055299014 12.8912559434862, -32.143571667629374 12.672644526876724, -32.581651408126575 12.158051136245307 M-32.581651408126575 12.158051136245307 C-32.80683682726976 11.856323189407155, -33.03202224641294 11.554595242569, -33.329296464640635 11.156274872382316 M-32.581651408126575 12.158051136245307 C-32.84984733822459 11.798693023065837, -33.11804326832261 11.439334909886368, -33.329296464640635 11.156274872382316 M-33.329296464640635 11.156274872382316 C-33.550003521498944 10.817209564904871, -33.770710578357246 10.478144257427426, -34.01122137860425 10.108655082055249 M-33.329296464640635 11.156274872382316 C-33.52513797157909 10.85540972691683, -33.72097947851754 10.554544581451347, -34.01122137860425 10.108655082055249 M-34.01122137860425 10.108655082055249 C-34.17362314369375 9.82029430317688, -34.336024908783266 9.531933524298513, -34.624623974273504 9.019496659696289 M-34.01122137860425 10.108655082055249 C-34.16917962220291 9.828184225539214, -34.32713786580158 9.54771336902318, -34.624623974273504 9.019496659696289 M-34.624623974273504 9.019496659696289 C-34.792292114814416 8.671330178339595, -34.95996025535532 8.323163696982899, -35.16698364880834 7.893275190886686 M-34.624623974273504 9.019496659696289 C-34.74171108741023 8.77636276400499, -34.85879820054696 8.533228868313692, -35.16698364880834 7.893275190886686 M-35.16698364880834 7.893275190886686 C-35.28734195834903 7.595987839351569, -35.40770026788972 7.2987004878164505, -35.636071729970325 6.73461856121551 M-35.16698364880834 7.893275190886686 C-35.28384581275428 7.604623386563978, -35.40070797670022 7.31597158224127, -35.636071729970325 6.73461856121551 M-35.636071729970325 6.73461856121551 C-35.78168722502892 6.296047890777454, -35.92730272008751 5.8574772203393985, -36.02996063421488 5.5482879393051325 M-35.636071729970325 6.73461856121551 C-35.77105167464788 6.3280804739803065, -35.90603161932543 5.921542386745104, -36.02996063421488 5.5482879393051325 M-36.02996063421488 5.5482879393051325 C-36.124265285350695 5.18866343262993, -36.21856993648651 4.829038925954728, -36.34703178754556 4.339158212148136 M-36.02996063421488 5.5482879393051325 C-36.14073370150258 5.125862224386075, -36.251506768790286 4.703436509467016, -36.34703178754556 4.339158212148136 M-36.34703178754556 4.339158212148136 C-36.431481724150316 3.905525636183117, -36.51593166075508 3.471893060218098, -36.585982276581774 3.112197953150904 M-36.34703178754556 4.339158212148136 C-36.39632514920116 4.086047218202285, -36.44561851085677 3.832936224256435, -36.585982276581774 3.112197953150904 M-36.585982276581774 3.112197953150904 C-36.634963496848044 2.7323092812016925, -36.683944717114315 2.3524206092524804, -36.74583020250937 1.872449005199809 M-36.585982276581774 3.112197953150904 C-36.63789357886171 2.7095841437138435, -36.68980488114165 2.306970334276783, -36.74583020250937 1.872449005199809 M-36.74583020250937 1.872449005199809 C-36.77301091857683 1.449087412569918, -36.8001916346443 1.025725819940027, -36.82591871591342 0.6250057626472781 M-36.74583020250937 1.872449005199809 C-36.76723291901591 1.5390844196485642, -36.78863563552245 1.2057198340973196, -36.82591871591342 0.6250057626472781 M-36.82591871591342 0.6250057626472781 C-36.82591871591342 0.29193958197223274, -36.82591871591342 -0.041126598702812656, -36.82591871591342 -0.6250057626472687 M-36.82591871591342 0.6250057626472781 C-36.82591871591342 0.244689795896745, -36.82591871591342 -0.13562617085378814, -36.82591871591342 -0.6250057626472687 M-36.82591871591342 -0.6250057626472687 C-36.80365874398926 -0.9717227932919301, -36.7813987720651 -1.3184398239365915, -36.74583020250937 -1.8724490051997822 M-36.82591871591342 -0.6250057626472687 C-36.80734778665335 -0.9142629760570261, -36.788776857393295 -1.2035201894667835, -36.74583020250937 -1.8724490051997822 M-36.74583020250937 -1.8724490051997822 C-36.70353143779822 -2.200509871463581, -36.66123267308707 -2.52857073772738, -36.585982276581774 -3.112197953150895 M-36.74583020250937 -1.8724490051997822 C-36.68206245035821 -2.367019098517182, -36.61829469820706 -2.8615891918345815, -36.585982276581774 -3.112197953150895 M-36.585982276581774 -3.112197953150895 C-36.507093175470914 -3.5172768141377353, -36.42820407436006 -3.9223556751245754, -36.34703178754556 -4.339158212148126 M-36.585982276581774 -3.112197953150895 C-36.495666619546135 -3.575949763808034, -36.4053509625105 -4.039701574465173, -36.34703178754556 -4.339158212148126 M-36.34703178754556 -4.339158212148126 C-36.28214790538207 -4.586588575689946, -36.21726402321857 -4.8340189392317665, -36.02996063421489 -5.548287939305123 M-36.34703178754556 -4.339158212148126 C-36.27960903372922 -4.596270393656162, -36.21218627991289 -4.853382575164199, -36.02996063421489 -5.548287939305123 M-36.02996063421489 -5.548287939305123 C-35.94300119741318 -5.810195907847156, -35.85604176061148 -6.072103876389189, -35.63607172997033 -6.734618561215485 M-36.02996063421489 -5.548287939305123 C-35.908331587054484 -5.914615250395303, -35.78670253989408 -6.280942561485483, -35.63607172997033 -6.734618561215485 M-35.63607172997033 -6.734618561215485 C-35.51252923432395 -7.039770913993721, -35.38898673867756 -7.344923266771956, -35.16698364880834 -7.893275190886676 M-35.63607172997033 -6.734618561215485 C-35.53901474771707 -6.974351183850139, -35.441957765463805 -7.214083806484792, -35.16698364880834 -7.893275190886676 M-35.16698364880834 -7.893275190886676 C-35.006821063924384 -8.22585622532855, -34.84665847904043 -8.558437259770425, -34.624623974273504 -9.019496659696282 M-35.16698364880834 -7.893275190886676 C-35.04179180036243 -8.153238742861046, -34.916599951916524 -8.413202294835415, -34.624623974273504 -9.019496659696282 M-34.624623974273504 -9.019496659696282 C-34.44050272789478 -9.346422576939617, -34.25638148151606 -9.67334849418295, -34.01122137860425 -10.108655082055243 M-34.624623974273504 -9.019496659696282 C-34.498571094723545 -9.243316311575397, -34.372518215173585 -9.467135963454512, -34.01122137860425 -10.108655082055243 M-34.01122137860425 -10.108655082055243 C-33.86353052892337 -10.335547887711208, -33.7158396792425 -10.562440693367172, -33.32929646464064 -11.156274872382308 M-34.01122137860425 -10.108655082055243 C-33.82835203682809 -10.38959149831735, -33.645482695051946 -10.670527914579456, -33.32929646464064 -11.156274872382308 M-33.32929646464064 -11.156274872382308 C-33.05398679325257 -11.525164750815296, -32.77867712186449 -11.894054629248286, -32.58165140812659 -12.158051136245302 M-33.32929646464064 -11.156274872382308 C-33.17196817962104 -11.367080441406952, -33.014639894601444 -11.577886010431596, -32.58165140812659 -12.158051136245302 M-32.58165140812659 -12.158051136245302 C-32.37535601529715 -12.400377443203151, -32.16906062246771 -12.642703750161003, -31.771358442968662 -13.10986736009567 M-32.58165140812659 -12.158051136245302 C-32.286746052503744 -12.50446374755, -31.991840696880903 -12.8508763588547, -31.771358442968662 -13.10986736009567 M-31.771358442968662 -13.10986736009567 C-31.537570659475556 -13.351272440886293, -31.30378287598245 -13.592677521676915, -30.901747236767996 -14.007812326905677 M-31.771358442968662 -13.10986736009567 C-31.561374456789 -13.326693065832057, -31.35139047060934 -13.543518771568444, -30.901747236767996 -14.007812326905677 M-30.901747236767996 -14.007812326905677 C-30.54902330525969 -14.3281468689377, -30.196299373751387 -14.648481410969723, -29.976391208501887 -14.848196188198107 M-30.901747236767996 -14.007812326905677 C-30.58000051911667 -14.300014182924958, -30.25825380146534 -14.59221603894424, -29.976391208501887 -14.848196188198107 M-29.976391208501887 -14.848196188198107 C-29.652235623444927 -15.10670164113864, -29.32808003838797 -15.365207094079173, -28.99909284457872 -15.627565626425149 M-29.976391208501887 -14.848196188198107 C-29.622175491329106 -15.130673796567297, -29.267959774156324 -15.413151404936487, -28.99909284457872 -15.627565626425149 M-28.99909284457872 -15.627565626425149 C-28.715174028198415 -15.82561510208458, -28.431255211818108 -16.02366457774401, -27.97386807360571 -16.342718045390885 M-28.99909284457872 -15.627565626425149 C-28.6129557343101 -15.896918158942443, -28.22681862404148 -16.166270691459736, -27.97386807360571 -16.342718045390885 M-27.97386807360571 -16.342718045390885 C-27.728987135510483 -16.49116630914434, -27.484106197415258 -16.639614572897795, -26.90492976407679 -16.99071473040609 M-27.97386807360571 -16.342718045390885 C-27.553639631108393 -16.597462996769202, -27.133411188611078 -16.852207948147516, -26.90492976407679 -16.99071473040609 M-26.90492976407679 -16.99071473040609 C-26.682225725164713 -17.106899284857775, -26.459521686252636 -17.223083839309464, -25.796670412792388 -17.56889292409717 M-26.90492976407679 -16.99071473040609 C-26.525951096196884 -17.188427658691616, -26.14697242831698 -17.386140586977138, -25.796670412792388 -17.56889292409717 M-25.796670412792388 -17.56889292409717 C-25.499350034364614 -17.700507835931482, -25.202029655936844 -17.832122747765798, -24.653644095147804 -18.07487676824742 M-25.796670412792388 -17.56889292409717 C-25.5446965136194 -17.680434294720904, -25.29272261444641 -17.791975665344637, -24.653644095147804 -18.07487676824742 M-24.653644095147804 -18.07487676824742 C-24.282981458083782 -18.21128404505484, -23.91231882101976 -18.347691321862253, -23.48054775146062 -18.506587066708033 M-24.653644095147804 -18.07487676824742 C-24.29776020826126 -18.205845328376256, -23.94187632137471 -18.336813888505095, -23.48054775146062 -18.506587066708033 M-23.48054775146062 -18.506587066708033 C-23.049710364261806 -18.634457341717045, -22.618872977062992 -18.76232761672606, -22.282201886235413 -18.862249829261067 M-23.48054775146062 -18.506587066708033 C-23.032893887528967 -18.639448383739865, -22.58524002359732 -18.772309700771697, -22.282201886235413 -18.862249829261067 M-22.282201886235413 -18.862249829261067 C-21.970488489502877 -18.933396377945257, -21.658775092770338 -19.004542926629448, -21.063530759676766 -19.140403561325773 M-22.282201886235413 -18.862249829261067 C-21.84136710099685 -18.962867492275954, -21.400532315758287 -19.063485155290838, -21.063530759676766 -19.140403561325773 M-21.063530759676766 -19.140403561325773 C-20.660773712861797 -19.20551819722727, -20.25801666604683 -19.27063283312877, -19.829542152847882 -19.3399052695533 M-21.063530759676766 -19.140403561325773 C-20.624460689905558 -19.21138900516714, -20.18539062013435 -19.2823744490085, -19.829542152847882 -19.3399052695533 M-19.829542152847882 -19.3399052695533 C-19.477758295019566 -19.37384143523601, -19.125974437191246 -19.407777600918717, -18.585306789623903 -19.45993515863156 M-19.829542152847882 -19.3399052695533 C-19.54577945216034 -19.367279516014047, -19.262016751472796 -19.394653762474796, -18.585306789623903 -19.45993515863156 M-18.585306789623903 -19.45993515863156 C-18.209358734444134 -19.471991081022676, -17.833410679264368 -19.484047003413796, -17.335937500000007 -19.5 M-18.585306789623903 -19.45993515863156 C-18.217805205484733 -19.471720219136465, -17.850303621345564 -19.483505279641367, -17.335937500000007 -19.5 M-17.335937500000007 -19.5 C-17.335937500000004 -19.5, -17.335937500000004 -19.5, -17.3359375 -19.5 M-17.335937500000007 -19.5 C-17.335937500000007 -19.5, -17.335937500000004 -19.5, -17.3359375 -19.5" stroke="#263238" stroke-width="1.3" fill="none" stroke-dasharray="0 0" style="fill:#37474f !important;stroke:#263238 !important"/></g><g class="label" style="color:#fff !important" transform="translate(-24.4609375, -12)"><rect/><foreignObject width="48.921875" height="24"><div style="color: rgb(255, 255, 255) !important; display: table-cell; white-space: nowrap; line-height: 1.5; max-width: 200px; text-align: center;" xmlns="http://www.w3.org/1999/xhtml"><span style="color:#fff !important" class="nodeLabel"><p>Verdict</p></span></div></foreignObject></g></g></g></g></g><defs><filter id="my-svg-drop-shadow" height="130%" width="130%"><feDropShadow dx="4" dy="4" stdDeviation="0" flood-opacity="0.06" flood-color="#000000"/></filter></defs><defs><filter id="my-svg-drop-shadow-small" height="150%" width="150%"><feDropShadow dx="2" dy="2" stdDeviation="0" flood-opacity="0.06" flood-color="#000000"/></filter></defs></svg>